<svg xmlns="http://www.w3.org/2000/svg" width="640" height="160" viewBox="0 0 640 160" role="img" aria-label="Wikramasooriya Enterprises gear logo - dark">
  <defs>
    <style>
      .primary{fill:#6ea8ff}
      .secondary{fill:#ff9b45}
      .text{fill:#f8fafc;font-family:'Rajdhani',sans-serif;font-weight:700;font-size:36px}
    </style>
  </defs>
  <rect width="640" height="160" fill="#0b1220" rx="12"/>
  <g transform="translate(20,20)">
    <circle cx="60" cy="60" r="38" fill="#0e1a33"/>
    <g fill="#6ea8ff">
      <circle cx="60" cy="60" r="18"/>
      <rect x="58" y="6" width="4" height="16" rx="2"/>
      <rect x="58" y="98" width="4" height="16" rx="2"/>
      <rect x="6" y="58" width="16" height="4" rx="2"/>
      <rect x="98" y="58" width="16" height="4" rx="2"/>
      <rect x="90" y="22" width="16" height="4" rx="2" transform="rotate(45 98 24)"/>
      <rect x="14" y="22" width="16" height="4" rx="2" transform="rotate(-45 22 24)"/>
      <rect x="90" y="94" width="16" height="4" rx="2" transform="rotate(-45 98 96)"/>
      <rect x="14" y="94" width="16" height="4" rx="2" transform="rotate(45 22 96)"/>
    </g>
    <circle cx="60" cy="60" r="12" fill="#0b1220" stroke="#ff9b45" stroke-width="6"/>
  </g>
  <g transform="translate(160,88)">
    <text class="text">
      <tspan>Wikramasooriya </tspan>
      <tspan class="secondary">Enterprises</tspan>
    </text>
  </g>
</svg>
